<!DOCTYPE svg PUBLIC "-//W3C//DTD SVG 1.1//EN" "http://www.w3.org/Graphics/SVG/1.1/DTD/svg11.dtd">
<!-- Uploaded to: SVG Repo, www.svgrepo.com, Transformed by: SVG Repo Mixer Tools -->
<svg fill="#f8f9fa" height="800px" width="800px" version="1.1" id="Layer_1" xmlns="http://www.w3.org/2000/svg" xmlns:xlink="http://www.w3.org/1999/xlink" viewBox="0 0 512 512" xml:space="preserve">
<g id="SVGRepo_bgCarrier" stroke-width="0"/>
<g id="SVGRepo_tracerCarrier" stroke-linecap="round" stroke-linejoin="round"/>
<g id="SVGRepo_iconCarrier"> <g> <g> <path d="M300.408,388.181v-43.858c75.07-19.706,130.611-88.138,130.611-169.304C431.019,78.514,352.506,0,256,0 C159.517,0,81.02,78.476,80.982,174.951h-0.001v7.834h0.182c3.412,77.737,57.767,142.465,130.429,161.539v43.858h20.898v29.779 h-2.612c-15.845,0-28.734,12.891-28.734,28.734v10.449h15.673v-10.449c0-7.202,5.859-13.061,13.061-13.061h52.244 c7.202,0,13.061,5.859,13.061,13.061v10.449h15.673v-10.449c0-15.844-12.891-28.734-28.734-28.734h-2.612v-29.779H300.408z M256,15.673c84.668,0,154.114,66.381,159.054,149.831c-6.301-2.705-11.046-8.464-12.261-15.648 c-5.18-30.612-19.673-58.457-41.915-80.526C332.8,41.471,295.553,26.127,256.001,26.127h-1.168 c-35,0.271-68.97,13.044-95.651,35.971c-26.372,22.661-44.108,53.833-49.939,87.774c-1.229,7.152-5.984,12.882-12.291,15.571 C101.921,82.022,171.353,15.673,256,15.673z M96.812,181.908c14.14-3.158,25.327-14.547,27.875-29.382 c5.216-30.357,21.093-58.249,44.708-78.54c23.874-20.514,54.258-31.944,85.497-32.186H256c35.389,0,68.716,13.728,93.839,38.655 c19.903,19.748,32.87,44.65,37.501,72.015c2.519,14.895,13.693,26.333,27.845,29.507C411.529,266.623,341.531,334.364,256,334.364 C170.446,334.364,100.434,266.587,96.812,181.908z M263.837,417.96h-15.673v-29.779h15.673V417.96z M227.266,372.508v-24.842 c9.353,1.552,18.949,2.372,28.734,2.372c9.785,0,19.382-0.82,28.734-2.372v24.842H227.266z"/> </g> </g> <g> <g> <path d="M256,67.923c-59.056,0-107.101,48.045-107.101,107.101c0,59.056,48.045,107.101,107.101,107.101 s107.101-48.045,107.101-107.101S315.056,67.923,256,67.923z M256,266.451c-50.414,0-91.428-41.014-91.428-91.428 c0-50.414,41.014-91.428,91.428-91.428s91.428,41.014,91.428,91.428C347.428,225.438,306.414,266.451,256,266.451z"/> </g> </g> <g> <g> <path d="M256,104.494c-38.891,0-70.53,31.639-70.53,70.53c0,38.891,31.639,70.53,70.53,70.53c38.891,0,70.53-31.639,70.53-70.53 C326.53,136.133,294.891,104.494,256,104.494z M256,229.88c-30.248,0-54.857-24.609-54.857-54.857 c0-30.247,24.608-54.857,54.857-54.857c30.247,0,54.857,24.609,54.857,54.857C310.857,205.271,286.248,229.88,256,229.88z"/> </g> </g> <g> <g> <path d="M256,135.841c-21.606,0-39.183,17.577-39.183,39.183c0,21.606,17.577,39.183,39.183,39.183 c21.606,0,39.183-17.577,39.183-39.183C295.183,153.418,277.606,135.841,256,135.841z M256,198.534 c-12.964,0-23.51-10.547-23.51-23.51s10.546-23.51,23.51-23.51c12.963,0,23.51,10.547,23.51,23.51 C279.51,187.987,268.964,198.534,256,198.534z"/> </g> </g> <g> <g> <path d="M342.203,470.205H169.797c-11.523,0-20.898,9.375-20.898,20.898c0,11.523,9.375,20.898,20.898,20.898h172.406 c11.523,0,20.898-9.375,20.898-20.898C363.101,479.579,353.727,470.205,342.203,470.205z M342.203,496.327H169.797 c-2.881,0-5.224-2.344-5.224-5.224c0-2.881,2.344-5.224,5.224-5.224h172.406c2.881,0,5.224,2.344,5.224,5.224 C347.428,493.983,345.084,496.327,342.203,496.327z"/> </g> </g> </g>
</svg>